# xmcd
#
# Track frame offsets:
#	150
#	22433
#	52840
#	75969
#	89378
#	101133
#	118585
#	130864
#	144790
#	155473
#	165978
#	177931
#	192170
#	204338
#	215593
#	233130
#	256966
#	275532
#
# Disc length: 4142 seconds
#
# Revision: 0
# Processed by: cddbd v1.5.2PL0 Copyright (c) Steve Scherf et al.
# Submitted via: dBpowerAMP V4.0
#
DISCID=ef102c12
DTITLE=Various Artist - Maxi Blues CD 2
DYEAR=1900
DGENRE=Blues
TTITLE0=Sweet home Chicago - Luther Alison
TTITLE1=Medley (She walks right in, Shake rattle and roll, Sick and tired) - Professor Longhair
TTITLE2=Manish boy - Muddy Waters
TTITLE3=California boogie - Howlin' Wolf
TTITLE4=Boogie chillun - John Lee Hooker
TTITLE5=King bee - Louisiana Red
TTITLE6=Double trouble - Otis Rush
TTITLE7=Little red rooster - Fenton Robinson
TTITLE8=Coffee house blues - Lightnin' Hopkins
TTITLE9=Gotta find my baby - Memphis Slim
TTITLE10=Pneumonia blues - Big Bill Broonzy
TTITLE11=Goodbye blues - T. Bone Walker
TTITLE12=Honest I do - Jimmy Reed
TTITLE13=Boom boom - John Lee Hooker
TTITLE14=Big chief - Professor Longhair
TTITLE15=Dust my broom - Luther Alison
TTITLE16=The score - Robert Cray
TTITLE17=Goin' down - Luther Alison
EXTD=
EXTT0=
EXTT1=
EXTT2=
EXTT3=
EXTT4=
EXTT5=
EXTT6=
EXTT7=
EXTT8=
EXTT9=
EXTT10=
EXTT11=
EXTT12=
EXTT13=
EXTT14=
EXTT15=
EXTT16=
EXTT17=
PLAYORDER=
